<?xml version="1.0" encoding="utf-8"?>
<!-- Generator: Adobe Illustrator 28.0.0, SVG Export Plug-In . SVG Version: 6.00 Build 0)  -->
<svg version="1.1" id="Capa_1" xmlns="http://www.w3.org/2000/svg" xmlns:xlink="http://www.w3.org/1999/xlink" x="0px" y="0px"
	 viewBox="0 0 40 40" style="enable-background:new 0 0 40 40;" xml:space="preserve">
<style type="text/css">
	.st0{fill:url(#SVGID_1_);}
	.st1{fill:url(#SVGID_00000119101802573311904010000012452283129321180291_);}
	.st2{fill:url(#SVGID_00000023242038267513858250000015585151164403404461_);}
	.st3{fill:url(#SVGID_00000074439891277801771870000007080218734235788218_);}
	.st4{fill:url(#SVGID_00000138551549315373640620000015064054237608023982_);}
</style>
<g>
	<g id="XMLID_00000021113312865335051340000018095385857911414177_">
		<g>
			<linearGradient id="SVGID_1_" gradientUnits="userSpaceOnUse" x1="23.26" y1="21.1213" x2="30.52" y2="21.1213">
				<stop  offset="0.2593" style="stop-color:#FFDB6E"/>
				<stop  offset="1" style="stop-color:#FFBC5E"/>
			</linearGradient>
			<path class="st0" d="M28.9,25.9c0.5,0,1-0.4,1.2-0.9c0.2-0.5,0-1.1-0.5-1.4c-0.6-0.5-1.3-0.4-1.8,0.2c-0.3,0.4-0.6,0.7-1,1
				c-1.1,1-2.1,1.9-3.2,2.9l-0.4-0.4c0.3-0.2,0.5-0.6,0.5-1.1c0-2.8,0-5.6,0-8.5c0-0.8,0-1.6,0-2.4c0-0.8,0-1.6,0-2.4
				c0-0.5,0.4-0.9,0.9-0.9c1.1,0,2.2,0,3.2,0c0.5,0,0.9,0.4,0.9,0.9c0,2.6,0,5.2,0,7.8c0,0.3,0,0.7,0.1,1c0,0.1,0.2,0.3,0.3,0.3
				c0.5,0.2,0.7,0.5,0.7,1c0,0.1,0.1,0.3,0.2,0.4c0.6,0.6,0.6,1.6,0,2.3c-0.1,0.1-0.1,0.3-0.1,0.4c0,0.4-0.2,0.7-0.5,0.9
				c-0.4,0.2-0.5,0.5-0.5,0.9c0,0.5,0,1,0,1.5c0,0.3-0.2,0.5-0.5,0.5c-1.1,0-2.2,0-3.2,0c-0.4,0-0.6,0.1-0.9,0.3L24,30
				c1.3-1.2,2.6-2.4,4-3.6c0.1-0.1,0.1-0.1,0.2-0.2C28.4,26,28.6,25.9,28.9,25.9z"/>
			
				<linearGradient id="SVGID_00000016795539211974490210000014682258906691368370_" gradientUnits="userSpaceOnUse" x1="17.12" y1="25.3781" x2="23.65" y2="25.3781">
				<stop  offset="0.2593" style="stop-color:#FFDB6E"/>
				<stop  offset="1" style="stop-color:#FFBC5E"/>
			</linearGradient>
			<path style="fill:url(#SVGID_00000016795539211974490210000014682258906691368370_);" d="M17.1,20.7c0.3,0.1,0.6,0.2,0.9,0.3
				c1.2,0.2,2.2-0.4,2.7-1.2c0.1-0.1,0.2-0.3,0.2-0.3c0.2,0,0.5,0,0.6,0.1c0.2,0.1,0.4,0.4,0.4,0.7c0,2.2,0,4.4,0,6.6
				c0,0.5,0.4,0.7,0.8,0.5c0.1-0.1,0.3-0.1,0.4-0.2l0.4,0.4c-0.9,0.8-1.8,1.6-2.7,2.5c-0.4,0.3-0.8,0.7-1.1,1
				c-0.2,0.2-0.3,0.2-0.6,0c-0.2-0.2-0.5-0.4-0.7-0.7c-0.4-0.4-0.8-0.8-1.2-1.2c-0.1-0.1-0.1-0.2-0.1-0.3c0-2.6,0-5.2,0-7.9
				C17.1,21,17.1,20.8,17.1,20.7z"/>
			
				<linearGradient id="SVGID_00000168815412458135197690000013402351035009531292_" gradientUnits="userSpaceOnUse" x1="14.9803" y1="13.1695" x2="22.05" y2="13.1695">
				<stop  offset="0.2593" style="stop-color:#FFDB6E"/>
				<stop  offset="1" style="stop-color:#FFBC5E"/>
			</linearGradient>
			<path style="fill:url(#SVGID_00000168815412458135197690000013402351035009531292_);" d="M20.3,15.2c-0.1-0.6-0.6-1.1-1.2-1
				c0,0.7,0,1.5,0,2.2C19.7,16.4,20.3,15.8,20.3,15.2z M16.8,10.8c-0.1,0.4,0,0.8,0.3,1c0.3,0.2,0.5,0.4,0.9,0.4c0-0.1,0-0.2,0-0.2
				c0-0.6,0-1.2,0-1.9c0-0.1,0-0.3-0.2-0.2C17.4,10,17,10.2,16.8,10.8z M16.5,13.3c-0.7-0.3-1.2-0.9-1.4-1.6
				c-0.3-1.1,0.2-2.3,1.2-2.9c0.4-0.3,1.1-0.5,1.7-0.5c0-0.2,0-0.4,0-0.6c0-0.1,0-0.2,0-0.2c0.1-0.2,0.3-0.3,0.6-0.2
				C18.9,7.2,19,7.3,19,7.5c0,0.2,0,0.4,0,0.6c0,0.1,0,0.2,0.2,0.2c1,0.1,1.8,0.6,2.4,1.4c0.2,0.3,0.3,0.6,0.2,0.9
				c-0.2,0.6-0.9,0.9-1.3,0.4c-0.2-0.2-0.3-0.4-0.5-0.6c-0.2-0.3-0.5-0.5-0.9-0.6c0,0.9,0,1.7,0,2.6c0.3,0.1,0.5,0.1,0.8,0.2
				c0.8,0.2,1.4,0.6,1.9,1.3c0.2,0.4,0.3,0.9,0.3,1.3c0,0.9-0.4,1.7-1.2,2.2c-0.5,0.3-1,0.5-1.5,0.6C19.1,18,19,18.1,19,18.4
				c0,0.1,0,0.3,0,0.4c0,0.2-0.1,0.3-0.3,0.4c-0.2,0.1-0.4,0-0.5-0.1c0,0,0-0.1-0.1-0.2c0-0.2,0-0.5,0-0.7c0-0.1-0.1-0.2-0.2-0.2
				c-0.5-0.1-1-0.2-1.4-0.4c-0.7-0.3-1.2-0.9-1.5-1.7c-0.1-0.4,0.1-0.9,0.4-1.1c0.4-0.2,0.9-0.1,1.1,0.4c0.1,0.2,0.2,0.4,0.3,0.6
				c0.2,0.3,0.8,0.6,1.1,0.6c0,0,0-0.1,0-0.1c0-0.7,0-1.5,0-2.2c0-0.2-0.1-0.2-0.2-0.3C17.4,13.7,17,13.5,16.5,13.3z"/>
			
				<linearGradient id="SVGID_00000141434208152775319330000001184382384770852266_" gradientUnits="userSpaceOnUse" x1="10.4898" y1="24.6478" x2="15.4127" y2="24.6478">
				<stop  offset="0.2593" style="stop-color:#FFDB6E"/>
				<stop  offset="1" style="stop-color:#FFBC5E"/>
			</linearGradient>
			<path style="fill:url(#SVGID_00000141434208152775319330000001184382384770852266_);" d="M14.5,19.4c0.4,0,0.8,0.5,0.8,0.9
				c0,1.7,0.1,3.3,0.1,5c0,1.3,0,2.6,0,3.9c0,0.4-0.2,0.6-0.6,0.6c-1.2,0-2.5,0-3.8,0c-0.4,0-0.5-0.1-0.5-0.5c0-1.5,0-3,0-4.5
				c0-1.5,0-3,0-4.5c0-0.4,0.5-0.9,0.8-0.9C12.4,19.4,13.5,19.4,14.5,19.4z"/>
			
				<linearGradient id="SVGID_00000139259576585350275040000006802700703529639578_" gradientUnits="userSpaceOnUse" x1="1.8" y1="20.26" x2="37.67" y2="20.26">
				<stop  offset="0.2593" style="stop-color:#FFDB6E"/>
				<stop  offset="1" style="stop-color:#FFBC5E"/>
			</linearGradient>
			<path style="fill:url(#SVGID_00000139259576585350275040000006802700703529639578_);" d="M30.2,5.9c3.6,2.6,6,6.1,7,10.5
				c0.2,1,0.4,2,0.4,3.1c0,0.1,0,0.2,0,0.2c0,0.4,0,0.7,0,1.1c0,0.3-0.1,0.7-0.1,1c-0.2,2.2-0.7,4.4-1.8,6.4
				c-2.5,4.9-6.5,8-11.9,9.3c-1.4,0.3-2.8,0.5-4.1,0.5c-0.5,0-1,0-1.5-0.1c-3.7-0.2-7-1.5-9.9-3.8c-3.1-2.5-5.1-5.6-6.1-9.4
				c-0.3-1.2-0.5-2.5-0.5-3.8c0-0.2,0-0.3,0-0.5c0-2.2,0.4-4.3,1.2-6.4C5,9.1,8.4,5.8,13.1,3.8c0.8-0.3,1.5-0.5,2.3-0.8
				c0.1,0,0.2,0,0.3,0c0.2,0,0.3,0.1,0.4,0.2c0,0.1,0.1,0.2,0.1,0.3c0,0.8,0,1.6,0,2.4c0,0.3-0.2,0.4-0.5,0.5
				c-0.5,0.2-1.1,0.4-1.6,0.7c-3.8,1.7-6.5,4.6-8,8.5c-0.7,1.8-0.8,3.7-0.8,5.6c0.1,1.9,0.6,3.7,1.4,5.4C6.9,26.8,7,27,7.1,27.2
				c0.2,0.2,0.4,0.4,0.7,0.4c0.4,0,0.6,0.2,0.6,0.6c0,0.8,0,1.6,0,2.4c0,0.4,0.1,0.8,0.5,1c0.3,0.2,0.6,0.2,0.9,0.2
				c2.3,0,4.6,0,6.8,0c0.2,0,0.3,0.1,0.5,0.2c0.5,0.4,0.9,0.9,1.4,1.3c0.3,0.3,0.6,0.5,1,0.4c0.2,0,0.4-0.1,0.6-0.2
				c0.8-0.7,1.5-1.4,2.3-2.1c0.5-0.5,1.1-1,1.6-1.5l0.2,0.2c-0.1,0.1-0.1,0.2-0.2,0.2c-0.3,0.5-0.1,1.1,0.6,1.3c0.1,0,0.2,0,0.3,0
				c1.5,0,3.1,0,4.7,0c0.6,0,1-0.2,1.2-0.8c0-0.1,0.1-0.2,0.1-0.3c0-0.9,0-1.7,0-2.6c0-0.3,0.1-0.4,0.4-0.5c0,0,0.1,0,0.1,0
				c0.6,0,0.9-0.4,1.1-0.9c0.6-1.1,0.9-2.4,1.2-3.6c0.2-1,0.3-2.1,0.3-3.1c-0.1-2.3-0.6-4.4-1.7-6.4c-2.1-3.9-5.4-6.3-9.6-7.4
				c-0.5-0.1-1.1-0.2-1.7-0.3c-0.4-0.1-0.6-0.3-0.6-0.7c0-0.7,0-1.5,0-2.2c0-0.3,0.2-0.5,0.5-0.5c0,0,0.1,0,0.1,0c0.2,0,0.4,0,0.7,0
				C24.9,3,27.7,4.1,30.2,5.9z"/>
		</g>
		<g>
		</g>
	</g>
</g>
</svg>
