<?xml version="1.0" encoding="utf-8"?>
<!-- Generator: Adobe Illustrator 28.0.0, SVG Export Plug-In . SVG Version: 6.00 Build 0)  -->
<svg version="1.1" id="Capa_1" xmlns="http://www.w3.org/2000/svg" xmlns:xlink="http://www.w3.org/1999/xlink" x="0px" y="0px"
	 viewBox="0 0 40 40" style="enable-background:new 0 0 40 40;" xml:space="preserve">
<style type="text/css">
	.st0{fill:#FFFFFF;}
	.st1{fill:url(#SVGID_1_);}
	.st2{fill:url(#SVGID_00000001653955523323192510000002553203185659237264_);}
	.st3{fill:url(#SVGID_00000133523737133627054000000005610011992918101176_);}
	.st4{fill:url(#SVGID_00000052799259133886892240000002408425929085374639_);}
</style>
<g>
	<g id="XMLID_00000134969982862414747320000002281878180230631055_">
		<g>
			<path class="st0" d="M36.3,3.6c-0.4-0.8-0.9-1.6-1.5-2.2c-0.2-0.2-0.5-0.4-0.7-0.6c1.1,0,2.2,0,3.3,0c0,2.3,0,4.6,0,6.9h-0.1
				c0-0.4-0.1-0.8-0.1-1.2C37.1,5.4,36.7,4.5,36.3,3.6z"/>
			<linearGradient id="SVGID_1_" gradientUnits="userSpaceOnUse" x1="31.05" y1="13.0962" x2="36.1225" y2="13.0962">
				<stop  offset="0.2593" style="stop-color:#FFDB6E"/>
				<stop  offset="1" style="stop-color:#FFBC5E"/>
			</linearGradient>
			<path class="st1" d="M31.7,12.2c1.3,0,2.5,0,3.8,0c0.4,0,0.6,0.3,0.6,0.7c0,0.3,0,0.7,0,1.1c-1.7,0-3.4,0-5.1,0
				c0-0.4,0-0.9,0.1-1.3C31.2,12.5,31.5,12.2,31.7,12.2z"/>
			
				<linearGradient id="SVGID_00000069361647426774472740000010099747941936497079_" gradientUnits="userSpaceOnUse" x1="29.887" y1="5.7512" x2="37.32" y2="5.7512">
				<stop  offset="0.2593" style="stop-color:#FFDB6E"/>
				<stop  offset="1" style="stop-color:#FFBC5E"/>
			</linearGradient>
			<path style="fill:url(#SVGID_00000069361647426774472740000010099747941936497079_);" d="M34.5,10.7c-1.6,0.3-2.9,0-4-1.3
				c-0.7-0.8-0.8-1.6-0.6-2.5c0.1-0.5,0.5-1,0.9-1.4c0.8-0.7,1.5-1.4,2.2-2.2c0.2-0.2,0.4-0.5,0.5-0.8C33.8,2,34.1,1.6,34,1
				c0-0.1,0.1-0.2,0.1-0.3c0.3,0.2,0.5,0.4,0.7,0.6c0.6,0.7,1.1,1.4,1.5,2.2c0.4,0.9,0.8,1.8,0.9,2.8c0.1,0.4,0.1,0.8,0.1,1.2
				c0,0.1,0,0.2,0,0.3c-0.1,0.7-0.4,1.3-0.9,1.8C35.9,10.2,35.3,10.6,34.5,10.7z"/>
			
				<linearGradient id="SVGID_00000145776448419953910450000009568080725728250758_" gradientUnits="userSpaceOnUse" x1="30.9817" y1="27.55" x2="36.2246" y2="27.55">
				<stop  offset="0.2593" style="stop-color:#FFDB6E"/>
				<stop  offset="1" style="stop-color:#FFBC5E"/>
			</linearGradient>
			<path style="fill:url(#SVGID_00000145776448419953910450000009568080725728250758_);" d="M31,18.1c0-0.8,0.1-1.5,0.1-2.3
				c0.5,0,1,0,1.6,0c0,0.1,0,0.2,0,0.4c0,1.4,0,2.8,0,4.2c0,0.8,0.8,1.2,1.5,0.8c0.3-0.1,0.3-0.4,0.3-0.6c0-1.4,0.1-2.8,0.1-4.2
				c0-0.2,0-0.3,0-0.5c0.5,0,1,0,1.5,0c0,0.3,0.1,0.6,0.1,0.9c0,2.2,0.1,4.5,0.1,6.7c0,1.2-0.1,2.4-0.2,3.6c-0.1,1.5-0.3,3-0.4,4.6
				c-0.1,1.4-0.3,2.8-0.4,4.2c-0.1,0.8-0.2,1.6-0.3,2.3c-0.1,0.6-0.5,0.9-1.1,1.1c0,0-0.1,0-0.1,0.1c-0.1,0-0.2,0-0.3,0
				c-0.2-0.1-0.4-0.2-0.6-0.3c-0.5-0.4-0.5-1-0.5-1.5c-0.1-1.1-0.2-2.2-0.3-3.3c0-0.3,0-0.6-0.1-0.9c-0.1-1.3-0.2-2.5-0.4-3.8
				c0-0.6-0.1-1.2-0.1-1.8C30.9,24.5,31,21.3,31,18.1z"/>
			
				<linearGradient id="SVGID_00000101800332282315175990000000643803984736923275_" gradientUnits="userSpaceOnUse" x1="2.55" y1="21.5905" x2="28.102" y2="21.5905">
				<stop  offset="0.2593" style="stop-color:#FFDB6E"/>
				<stop  offset="1" style="stop-color:#FFBC5E"/>
			</linearGradient>
			<path style="fill:url(#SVGID_00000101800332282315175990000000643803984736923275_);" d="M7.9,20.9c1.6,0,2.2-0.5,2.6-1.5
				c0.2-0.6-0.3-1.6-0.9-2c-0.9-0.5-2-0.6-3.1,0.3c-0.4,0.4-0.7,1.4-0.4,1.9C6.6,20.4,7.3,20.9,7.9,20.9z M18.8,29.6
				c-0.2,1.2,0.4,2,1.5,2.4c1.1,0.4,2.2,0.2,3.1-0.7c0.4-0.4,0.7-1.5,0.4-1.9c-0.5-1-1.3-1.5-2.5-1.5c-0.4,0-0.9,0.1-1.4,0.4
				C19.3,28.7,18.9,29.1,18.8,29.6z M16.8,13.1c0.6,0.7,1.3,1,2.2,1c0.9-0.1,2.1-0.9,2-2c0.1-0.5-0.2-0.9-0.6-1.3
				c-1.1-0.8-2.5-0.8-3.5,0.3C16.5,11.5,16.4,12.6,16.8,13.1z M17.8,36c-2.2,0.1-4.2-0.4-6.2-1.1c-1.3-0.5-2.6-1.2-3.7-2.2
				C7,31.9,6.1,31,5.3,30c-0.4-0.5-0.7-1.1-1-1.6c-0.6-0.9-1-2-1.2-3c-0.2-0.8-0.4-1.6-0.4-2.4c0-0.1,0-0.2,0-0.3c0-0.4,0-0.8,0-1.2
				c0-0.6,0-1.3,0.2-1.9c0.1-0.6,0.3-1.3,0.5-1.9c0-0.2,0.1-0.4,0.2-0.6c0.4-1,0.9-2,1.6-2.9c0.3-0.4,0.7-0.9,1-1.3
				c0.7-0.8,1.5-1.6,2.4-2.3c1-0.8,2-1.4,3.1-1.9c1.2-0.6,2.5-1,3.8-1.2c1.5-0.3,3-0.2,4.5,0.1c1.4,0.3,2.6,0.9,3.6,2
				c1,1.1,1.2,2.3,0.8,3.7c-0.3,0.9-0.8,1.6-1.4,2.3c-0.8,0.9-1.7,1.7-2.1,2.8c-0.3,0.9-0.3,1.8,0.1,2.7c0.6,1.3,1.7,2,2.9,2.5
				c1.2,0.5,2.2,1.2,3.1,2.1c0.5,0.5,0.8,1.1,1.1,1.7c0.4,0.9,0.4,1.9,0.2,2.8c-0.2,0.8-0.5,1.5-1,2.1c-0.5,0.7-1.1,1.2-1.7,1.8
				c-1,0.8-2.1,1.2-3.3,1.6C20.6,35.9,19.2,35.9,17.8,36z M11.7,31.4c0.7,0.8,1.6,1,2.6,0.7c0.7-0.2,1.5-1,1.4-1.8
				c0-0.5-0.2-1-0.7-1.3c-0.9-0.8-2-0.8-3-0.2C11.1,29.4,10.9,30.6,11.7,31.4z M10.8,26.1c0.4-0.5,0.4-1.4,0.1-1.8
				c-0.6-0.9-1.6-1.3-2.7-1c-1.3,0.4-2,1.5-1.4,2.7C7.2,26.8,8,27,8.5,27C9.7,27,10.1,26.8,10.8,26.1z M10,14.3
				c0.4,0.9,1.2,1.4,2.3,1.4c0.6,0,1.1-0.2,1.6-0.6c0.5-0.4,0.8-1.6,0.4-2.1c-0.7-1.1-1.7-1.4-2.9-1.1c-0.6,0.2-1.1,0.6-1.4,1.2
				C9.9,13.6,9.9,13.9,10,14.3z"/>
		</g>
		<g>
		</g>
	</g>
</g>
</svg>
